<svg width="36" height="44" viewBox="0 0 36 44" fill="none" xmlns="http://www.w3.org/2000/svg">
<path fill-rule="evenodd" clip-rule="evenodd" d="M18.494 7.33333L25.5451 28.6035L26.2846 30.814H26.2834C26.6426 31.8901 27.85 32.2838 28.8 32.2839V33H19.933V32.1955L22.1924 32.0213L20.2389 25.8284H12.6996L10.7789 32.0213L13.0377 32.1955V33H7.80002V32.1955L9.82502 32.0213L17.741 7.33333H18.494ZM13.0852 24.5113H19.8305L16.4356 13.8365L13.0852 24.5113Z" fill="white"/>
<path fill-rule="evenodd" clip-rule="evenodd" d="M18 0C29.3466 0.284709 36.0182 11.8764 35.9994 21.9397C35.9995 21.9597 35.9993 21.98 35.9994 22C35.9993 22.0201 36.0001 22.0402 36 22.0603L35.9994 22.0597C36.0183 32.1231 29.3467 43.7153 18 44C6.64931 43.9024 -0.0169816 31.9684 3.24895e-05 22.0597V21.9397C-0.0168448 12.031 6.64942 0.0976324 18 0ZM18 0.606337C7.07656 0.993213 1.83088 12.585 1.86214 21.9523L1.86273 22.3933C1.95974 31.6976 7.2105 43.0115 18 43.3937C28.9737 43.1865 34.2041 31.182 34.1379 21.9523C34.1675 12.7354 28.9359 0.812837 18 0.606337Z" fill="white"/>
</svg>
