<svg width="32" height="32" viewBox="0 0 32 32" fill="none" xmlns="http://www.w3.org/2000/svg">
<path d="M18.7123 23.3333C21.1103 25.3981 23.7687 25.6142 26.1709 23.0347C20.7866 17.2529 13.5051 26.555 19.7877 28.6666M13.413 23.3333C10.9679 25.3981 8.27897 25.6142 5.82952 23.0347C10.9064 17.6883 18.6138 25.5639 12.3385 28.6666M9.8949 20.7667C8.96396 16.5342 6.57027 15.0609 2.66675 16.3175C3.59767 20.5501 5.99138 22.0235 9.8949 20.7667ZM8.21849 16.4401C9.49667 12.6021 7.99811 10.2486 3.69333 9.33325C2.41516 13.1713 3.91373 15.5247 8.21849 16.4401ZM9.34754 3.33325C5.54968 5.47869 5.01545 8.09445 7.73436 11.232C11.5322 9.08653 12.0664 6.47076 9.34754 3.33325ZM22.1053 20.7667C23.0362 16.5342 25.4299 15.0609 29.3334 16.3175C28.4025 20.5501 26.0087 22.0235 22.1053 20.7667ZM23.7818 16.4401C22.5035 12.6021 24.0022 10.2486 28.3069 9.33325C29.5851 13.1713 28.0865 15.5247 23.7818 16.4401ZM22.6527 3.33325C26.4505 5.47869 26.9847 8.09445 24.2658 11.232C20.4681 9.08653 19.9338 6.47076 22.6527 3.33325Z" stroke="#1E1E1E" stroke-width="1.25"/>
</svg>
