<svg width="32" height="32" viewBox="0 0 32 32" fill="none" xmlns="http://www.w3.org/2000/svg">
<path d="M4.66675 14.6667V27.3334H13.3334V20.6667H18.6667V27.3334H27.3334V14.6667" stroke="#1E1E1E" stroke-width="1.25" stroke-linecap="square"/>
<path d="M11.9996 4.66675H4.66626L3.87535 10.994C3.58734 13.2982 5.38399 15.3334 7.70611 15.3334C9.74474 15.3334 11.432 13.7483 11.5592 11.7137L11.9996 4.66675Z" stroke="#1E1E1E" stroke-width="1.25"/>
<path d="M20.0002 4.66675H12.0002L11.6247 10.6758C11.4669 13.1998 13.4714 15.3334 16.0002 15.3334C18.5291 15.3334 20.5335 13.1998 20.3758 10.6758L20.0002 4.66675Z" stroke="#1E1E1E" stroke-width="1.25"/>
<path d="M27.3333 4.66675H20L20.4404 11.7137C20.5676 13.7483 22.2548 15.3334 24.2935 15.3334C26.6156 15.3334 28.4123 13.2982 28.1243 10.994L27.3333 4.66675Z" stroke="#1E1E1E" stroke-width="1.25"/>
</svg>
